<?xml version="1.0" standalone="no"?>
<!DOCTYPE svg PUBLIC "-//W3C//DTD SVG 20010904//EN"
 "http://www.w3.org/TR/2001/REC-SVG-20010904/DTD/svg10.dtd">
<svg version="1.0" xmlns="http://www.w3.org/2000/svg"
 width="300.000000pt" height="47.000000pt" viewBox="0 0 300.000000 47.000000"
 preserveAspectRatio="xMidYMid meet">
<metadata>
Created by potrace 1.10, written by Peter Selinger 2001-2011
</metadata>
<g transform="translate(0.000000,47.000000) scale(0.100000,-0.100000)"
fill="#000000" stroke="none">
<path d="M760 239 l0 -149 30 0 30 0 0 70 c0 42 -6 82 -14 99 -9 17 -11 33 -6
41 7 12 10 11 16 -3 3 -10 4 -20 1 -23 -2 -3 4 -15 14 -27 167 -203 159 -202
159 -13 l0 146 -31 0 -31 0 4 -80 c2 -44 1 -80 -2 -80 -3 0 -34 35 -68 79 -34
43 -71 81 -82 84 -19 5 -20 0 -20 -144z"/>
<path d="M60 235 l0 -145 30 0 c30 0 30 0 30 58 -1 31 -7 75 -15 97 -18 50
-18 55 -1 55 18 0 29 -27 14 -36 -5 -4 -6 -9 -2 -13 5 -3 24 -36 41 -73 29
-59 53 -87 53 -59 0 4 17 37 37 71 21 35 37 68 35 73 -4 14 9 49 16 42 11 -11
11 -39 0 -53 -6 -7 -13 -46 -16 -87 l-5 -75 32 0 31 0 0 146 0 145 -26 -3
c-21 -2 -33 -17 -67 -85 -23 -45 -44 -82 -47 -82 -3 -1 -22 37 -44 84 -35 78
-41 85 -67 85 l-29 0 0 -145z"/>
<path d="M518 343 c-36 -83 -98 -238 -98 -245 0 -5 13 -8 29 -8 23 0 31 6 40
30 9 28 13 30 65 30 51 0 55 -2 65 -30 8 -25 15 -30 42 -30 25 0 30 3 25 18
-4 9 -30 74 -58 145 -44 106 -56 127 -73 127 -15 0 -26 -11 -37 -37z m50 -80
c5 -16 13 -36 17 -45 6 -15 1 -18 -30 -18 -34 0 -37 2 -30 23 3 12 9 32 12 45
7 30 19 28 31 -5z"/>
<path d="M1094 349 c3 -17 6 -83 6 -145 l0 -114 30 0 30 0 0 145 0 145 -36 0
c-36 0 -36 -1 -30 -31z"/>
<path d="M1279 351 c-17 -17 -29 -40 -29 -55 0 -34 37 -73 85 -89 41 -14 58
-43 33 -58 -16 -11 -58 -2 -79 17 -14 13 -18 12 -33 -11 -16 -25 -16 -25 16
-45 62 -38 136 -21 163 36 27 57 2 90 -93 125 -36 13 -39 34 -9 53 13 8 24 7
48 -7 30 -17 32 -17 45 0 19 26 18 31 -16 48 -48 25 -97 19 -131 -14z"/>
<path d="M1520 235 l0 -145 30 0 c30 0 30 0 30 60 l0 60 50 0 50 0 0 -60 c0
-60 0 -60 30 -60 l30 0 0 129 c0 71 3 136 6 145 5 13 -1 16 -31 16 l-36 0 2
-57 3 -58 -52 -3 -52 -3 0 60 0 61 -30 0 -30 0 0 -145z"/>
<path d="M2142 238 l3 -143 83 -3 c82 -3 82 -3 82 23 0 24 -2 25 -60 25 l-60
0 0 120 0 120 -25 0 -26 0 3 -142z"/>
<path d="M2455 366 c-70 -32 -102 -99 -84 -173 19 -71 94 -116 166 -99 40 11
90 67 99 110 8 47 -19 120 -56 148 -34 25 -88 31 -125 14z m106 -65 c39 -40
40 -93 2 -133 -57 -60 -153 -17 -153 69 0 46 45 93 90 93 22 0 41 -9 61 -29z"/>
<path d="M2782 360 c-97 -59 -96 -214 3 -256 44 -18 75 -18 124 2 44 17 50 28
50 91 l0 41 -60 7 c-33 4 -62 5 -64 3 -2 -2 -2 -14 2 -27 5 -18 11 -22 37 -19
26 3 32 -1 34 -21 2 -13 -2 -28 -10 -32 -25 -16 -85 -10 -112 12 -22 17 -26
28 -26 70 0 40 5 55 25 74 30 31 84 34 109 6 17 -19 18 -19 37 0 10 10 19 21
19 24 0 11 -81 45 -107 45 -15 0 -43 -9 -61 -20z"/>
<path d="M1860 230 l0 -140 54 0 c92 0 136 27 136 85 0 25 -6 38 -21 45 -19
11 -19 13 -5 29 24 26 20 74 -7 99 -19 18 -35 22 -90 22 l-67 0 0 -140z m133
79 c19 -31 1 -49 -48 -49 -45 0 -45 0 -45 36 0 35 0 35 41 32 25 -2 46 -10 52
-19z m8 -115 c21 -26 -2 -48 -55 -54 l-46 -6 0 38 0 38 44 0 c28 0 48 -6 57
-16z"/>
</g>
</svg>
